<svg width="512" height="338" viewBox="0 0 512 338" fill="none" xmlns="http://www.w3.org/2000/svg">
<path d="M406.255 65.3212C391.593 49.6709 380.243 30.9872 362.719 18.2151C335.194 -1.88909 295.578 -3.84926 263.393 8.7802C231.207 21.4097 206.134 46.8671 189.608 75.6928C180.916 90.8593 174.087 107.403 161.349 119.797C150.581 130.267 136.428 136.948 123.009 144.224C101.374 155.923 80.5379 170.06 66.5373 189.457C52.5366 208.854 46.2767 234.33 55.227 256.19C61.2622 270.941 73.4186 282.677 85.8725 293.303C100.528 305.796 116.28 317.495 134.458 324.939C157.218 334.2 182.482 336.191 207.258 337.134C251.18 338.798 295.173 337.554 338.909 333.412C374.724 330.025 411.622 324.244 441.587 305.529C483.563 279.321 505.205 231.303 510.077 184.216C512.06 165.383 511.557 145.812 503.81 128.338C485.281 86.542 435.287 96.318 406.255 65.3212Z" fill="#EFF1F7"/>
<path d="M120.728 137.074C120.728 137.074 109.576 135.081 106.451 142.936C103.327 150.791 106.451 177.917 106.451 177.917L148.062 207.848L120.728 137.074Z" fill="#3F3D56"/>
<path d="M173.78 257.757L156.979 262.663C154.538 263.369 151.977 261.997 151.251 259.593V259.593C150.534 257.186 151.926 254.661 154.364 253.944L171.142 249.034C173.581 248.327 176.142 249.698 176.87 252.1V252.1C177.594 254.503 176.213 257.031 173.78 257.757V257.757Z" fill="#2BD0D0"/>
<circle cx="172.562" cy="267.348" r="7.5" fill="#25233A"/>
<circle cx="171.562" cy="269.348" r="3.5" fill="#3F3D56"/>
<circle cx="142.562" cy="260.348" r="7.5" fill="#25233A"/>
<path d="M145.062 260.348C145.062 262.281 143.495 263.848 141.562 263.848C139.63 263.848 138.062 262.281 138.062 260.348C138.062 258.415 139.63 256.848 141.562 256.848C143.495 256.848 145.062 258.415 145.062 260.348Z" fill="url(#paint0_linear_11_124)"/>
<circle cx="140.562" cy="270.348" r="7.5" fill="#25233A"/>
<path d="M146.062 270.348C146.062 272.281 144.495 273.848 142.562 273.848C140.63 273.848 139.062 272.281 139.062 270.348C139.062 268.415 140.63 266.848 142.562 266.848C144.495 266.848 146.062 268.415 146.062 270.348V270.348Z" fill="#3F3D56"/>
<path d="M174.744 264.761L140.622 257.772C138.221 257.274 136.669 254.899 137.15 252.46V252.46C137.642 250.025 139.979 248.451 142.381 248.936L176.503 255.911C178.904 256.41 180.456 258.785 179.975 261.224V261.224C179.49 263.664 177.15 265.246 174.744 264.761V264.761Z" fill="#2BD0D0"/>
<path d="M154.062 209.848H163.062V250.075C163.062 252.711 161.049 254.848 158.565 254.848V254.848C156.081 254.848 154.067 252.711 154.067 250.075V209.848H154.062Z" fill="#2BD0D0"/>
<path d="M156.769 261.744L139.981 266.661C137.539 267.371 134.977 265.997 134.251 263.59V263.59C133.534 261.181 134.926 258.655 137.363 257.938L154.151 253.034C156.59 252.327 159.149 253.698 159.877 256.102V256.102C160.587 258.506 159.199 261.025 156.769 261.744Z" fill="#2BD0D0"/>
<path d="M160.062 262.108L157.979 262.659C157.358 262.823 156.708 262.881 156.062 262.831L156.932 262.604C157.537 262.447 158.104 262.19 158.604 261.848L160.062 262.108Z" fill="url(#paint1_linear_11_124)"/>
<path d="M177.062 252.136C177.062 253.126 176.71 254.084 176.067 254.848L162.062 252.08C162.415 251.611 162.669 251.079 162.811 250.514L171.439 248.017C172.561 247.7 173.766 247.833 174.789 248.385C175.811 248.937 176.567 249.864 176.891 250.961C177.003 251.343 177.06 251.739 177.062 252.136V252.136Z" fill="url(#paint2_linear_11_124)"/>
<path opacity="0.31" d="M153.21 251.23C153.112 250.882 153.062 250.526 153.063 250.168V210.848H157.024V253.224C156.985 253.432 156.998 253.644 157.062 253.848C156.463 253.637 155.819 253.52 155.166 253.505C154.705 253.478 154.243 253.478 153.782 253.505L154.065 253.438C154.24 253.411 153.439 252.033 153.21 251.23Z" fill="url(#paint3_linear_11_124)"/>
<path opacity="0.31" d="M177.585 263.884C176.933 264.253 176.2 264.446 175.455 264.446C175.155 264.445 174.856 264.414 174.562 264.354L159.507 261.243L158.252 260.988C157.824 261.325 157.338 261.577 156.819 261.732L156.074 261.956L140.603 266.661C138.243 267.372 135.764 265.995 135.062 263.582C136.404 264.856 138.441 264.975 139.916 263.865C141.804 262.527 149.323 260.517 153.582 259.448C155.595 258.956 157.135 257.296 157.511 255.214C157.522 255.091 157.54 254.969 157.565 254.848C158.275 255.634 159.578 256.516 161.936 257.265C167.74 259.092 177.165 260.302 177.165 260.302C177.165 260.302 178.866 262.011 177.585 263.884Z" fill="url(#paint4_linear_11_124)"/>
<path d="M179.062 262.848C178.798 263.237 178.459 263.576 178.062 263.848C178.332 263.588 178.677 263.241 179.062 262.848Z" fill="url(#paint5_linear_11_124)"/>
<path d="M153.929 251.312C154.114 252.123 154.504 252.87 155.062 253.479C154.923 253.506 154.779 253.543 154.635 253.584L140.455 257.848C138.274 257.286 136.837 255.173 137.092 252.901C137.346 250.63 139.213 248.899 141.462 248.848C141.764 248.849 142.066 248.88 142.362 248.94L153.929 251.312Z" fill="url(#paint6_linear_11_124)"/>
<path d="M175.062 60.673C175.062 60.673 174.877 46.6074 163.594 47.8203C152.311 49.0331 153.176 44.3763 148.357 44.8877C143.538 45.3991 137.939 50.151 139.547 56.0207C141.155 61.8904 135.294 63.2028 131.444 67.656C127.594 72.1092 132.35 75.7523 138.836 80.1059C145.322 84.4596 138.433 83.3327 142.278 90.2161C146.124 97.0996 159.141 88.3063 159.141 88.3063L175.062 60.673Z" fill="#503164"/>
<path d="M82.9019 294.578L90.853 294.848V231.236C90.853 231.236 91.2535 214.786 106.751 213.136C122.248 211.486 262.794 191.106 262.794 191.106C262.794 191.106 268.365 190.515 271.573 201.217C274.782 211.919 277.905 254.001 277.905 254.001L321.044 259.821C321.044 259.821 322.182 185.484 306.604 181.382C291.026 177.279 87.2981 198.183 87.2981 198.183C87.2981 198.183 72.1879 277.136 82.9019 294.578Z" fill="#2BD0D0"/>
<path opacity="0.197289" d="M82.9019 294.578L90.853 294.848V231.236C90.853 231.236 91.2535 214.786 106.751 213.136C122.248 211.486 262.794 191.106 262.794 191.106C262.794 191.106 268.365 190.515 271.573 201.217C274.782 211.919 277.905 254.001 277.905 254.001L321.044 259.821C321.044 259.821 322.182 185.484 306.604 181.382C291.026 177.279 87.2981 198.183 87.2981 198.183C87.2981 198.183 72.1879 277.136 82.9019 294.578Z" fill="url(#paint7_linear_11_124)"/>
<path d="M42.0625 205.327C42.0625 205.327 45.9602 183.739 73.3746 178.081L266.891 155.89C266.891 155.89 285.889 155.102 294.58 160.368C303.271 165.634 315.675 169.999 320.761 193.83C325.847 217.661 327.062 258.372 327.062 258.372L322.251 259.12C322.251 259.12 315.23 185.402 307.79 180.735C300.35 176.068 99.1957 204.701 99.1957 204.701C99.1957 204.701 85.2432 207.48 84.028 228.176C82.8128 248.871 84.028 293.848 84.028 293.848L42.0625 276.892V205.327Z" fill="#2BD0D0"/>
<path opacity="0.19" d="M241.641 164.766C231.612 163.485 221.502 162.557 211.396 162.933C203.801 163.224 196.255 164.258 188.723 165.288L122.295 174.394C121.169 174.549 119.884 174.801 119.32 175.773C118.239 177.629 120.781 179.458 122.841 180.165C144.928 187.756 168.525 195.444 191.261 190.031C201.655 187.557 211.31 182.418 221.853 180.633C232.396 178.848 243.219 180.492 253.74 178.808C263.629 177.227 273.045 172.733 283.07 172.689C286.144 172.689 289.308 173.078 292.225 172.123C295.141 171.169 297.719 168.252 296.913 165.345C287.501 165.022 276.935 163.317 267.704 165.168C258.567 166.998 250.792 164.766 241.641 164.766Z" fill="url(#paint8_linear_11_124)"/>
<path d="M181.062 175.435L181.447 176.845C181.447 176.845 192.827 183.627 192.756 183.845C192.684 184.064 239.963 173.019 239.963 173.019L241.062 169.848L181.062 175.435Z" fill="#2BD0D0"/>
<path d="M181.062 175.435L181.447 176.845C181.447 176.845 192.827 183.627 192.756 183.845C192.684 184.064 239.963 173.019 239.963 173.019L241.062 169.848L181.062 175.435Z" fill="url(#paint9_linear_11_124)"/>
<path d="M182.062 175.96L224.408 166.848L242.062 170.294L193.955 181.848L182.062 175.96V175.96Z" fill="#2BD0D0"/>
<path d="M182.062 175.96L224.408 166.848L242.062 170.294L193.955 181.848L182.062 175.96V175.96Z" fill="url(#paint10_linear_11_124)"/>
<path d="M168.284 183.504L177.922 183.846C177.922 183.846 180.37 183.998 181.002 182.034C181.635 180.071 177.076 175.928 176.587 175.85C176.098 175.771 163.414 179.329 165.243 182.887L168.284 183.504Z" fill="#2BD0D0"/>
<path d="M168.284 183.504L177.922 183.846C177.922 183.846 180.37 183.998 181.002 182.034C181.635 180.071 177.076 175.928 176.587 175.85C176.098 175.771 163.414 179.329 165.243 182.887L168.284 183.504Z" fill="url(#paint11_linear_11_124)"/>
<path d="M54.0625 281.579L49.2628 296.586C35.3413 301.676 23.5049 296.586 23.5049 296.586L20.0625 280.848C20.0625 280.848 37.4264 286.775 54.0625 281.579Z" fill="#2BD0D0"/>
<path d="M54.0625 281.579L49.2628 296.586C35.3413 301.676 23.5049 296.586 23.5049 296.586L20.0625 280.848C20.0625 280.848 37.4264 286.775 54.0625 281.579Z" fill="url(#paint12_linear_11_124)"/>
<path d="M59.0625 267.848L57.5164 279.635L53.5995 281.727C36.9146 286.889 19.4724 281.005 19.4724 281.005L16.4652 278.721L15.0625 267.848H59.0625Z" fill="#2BD0D0"/>
<path d="M59.0625 267.848L57.5164 279.635L53.5995 281.727C36.9146 286.889 19.4724 281.005 19.4724 281.005L16.4652 278.721L15.0625 267.848H59.0625Z" fill="url(#paint13_linear_11_124)"/>
<ellipse cx="37.0625" cy="267.848" rx="22" ry="4" fill="#2BD0D0"/>
<ellipse cx="37.0625" cy="267.848" rx="22" ry="4" fill="url(#paint14_linear_11_124)"/>
<path d="M27.2241 179.758C25.0434 178.728 22.6999 177.95 20.8132 176.445C17.0128 173.385 16.0492 168.114 14.8593 163.386C13.6694 158.658 11.3666 153.46 6.67488 152.104C4.91947 151.602 2.86092 151.801 1.52626 153.048C0.119212 154.364 -0.165817 156.524 0.218746 158.432C0.603309 160.339 1.53983 162.048 2.26372 163.856C3.95411 168.056 4.46866 172.636 3.7522 177.105C3.15952 180.771 1.74343 184.487 2.65281 188.08C4.19558 194.178 11.8823 197.753 12.095 204.037C12.2397 208.277 8.747 212.2 9.53875 216.372C10.1224 219.46 12.9681 221.869 13.122 225.006C13.2939 228.563 9.92784 231.574 10.0907 235.131C10.2536 238.689 13.8097 241.066 16.1306 243.864C18.0764 246.214 19.2333 249.116 19.4379 252.159C19.56 254.058 19.3157 256.024 19.9355 257.823C20.388 259.138 21.2928 260.255 21.9941 261.439C22.7677 262.718 23.3514 264.101 24.2834 265.286C26.6807 268.305 30.6782 269.559 34.3725 268.45C35.0918 263.722 34.463 258.899 34.662 254.121C35.0557 244.863 38.562 235.534 36.3179 226.547C35.4945 223.252 33.911 220.124 33.6305 216.743C33.3817 213.723 34.187 210.731 34.748 207.752C35.9062 201.6 35.8881 195.24 35.4131 189.02C35.0376 184.084 31.5629 181.811 27.2241 179.758Z" fill="#2BD0D0"/>
<path d="M40.2891 204.027C40.2534 208.15 41.1831 212.414 39.8779 216.329C38.89 219.296 36.7177 221.726 35.5957 224.643C33.0077 231.377 36.4897 238.928 35.779 246.118C35.484 249.08 34.4783 251.926 33.8435 254.834C33.0552 258.516 32.862 262.303 33.2714 266.048C33.1848 267.457 34.1375 268.716 35.5063 269.001C37.6964 269.845 39.9652 270.464 42.2782 270.848C41.4963 266.489 42.3199 261.991 44.5936 258.203C48.1383 252.332 55.0264 248.376 56.3092 241.633C57.1764 237.067 55.156 232.434 55.299 227.787C55.402 224.695 56.4549 221.711 58.3117 219.251C59.979 217.056 62.2363 215.358 63.7873 213.082C67.5152 207.595 66.3531 200.261 65.2445 193.699C64.136 187.137 63.4923 179.586 67.8728 174.613C69.2585 173.042 71.0643 171.863 72.3204 170.183C75.1185 166.439 74.4123 160.672 71.1582 157.326C67.9041 153.979 62.6654 153.053 58.2402 154.526C56.3736 155.081 54.7261 156.214 53.5289 157.764C51.294 160.97 52.188 165.351 53.1356 169.162C53.9625 172.473 54.6285 176.293 53.4977 179.631C52.6528 182.115 50.5118 183.461 48.6925 185.19C43.4826 190.061 40.4504 196.858 40.2891 204.027Z" fill="#2BD0D0"/>
<path d="M36.42 240.634C35.7773 245.118 34.8495 249.639 34.6595 254.137V254.589C34.6493 254.701 34.6234 254.81 34.5825 254.915C33.7798 258.6 33.5796 262.391 33.9896 266.14C34.014 266.747 34.1683 267.342 34.4422 267.885C34.4196 268.075 34.3924 268.26 34.3653 268.45C30.6698 269.559 26.6711 268.305 24.2729 265.285C23.3678 264.101 22.7568 262.718 21.9829 261.438C21.2588 260.249 20.3763 259.133 19.9237 257.822C19.3037 256.013 19.5481 254.056 19.4259 252.157C19.2213 249.114 18.064 246.212 16.1176 243.861C13.7959 241.081 10.2342 238.749 10.0758 235.132C9.91739 231.515 13.28 228.563 13.108 225.005C12.9541 221.868 10.1075 219.458 9.52366 216.371C8.73166 212.198 12.2391 208.274 12.0807 204.034C11.868 197.75 4.17879 194.174 2.63552 188.075C1.73038 184.481 3.1424 180.765 3.73527 177.099C4.45518 172.635 3.94677 168.06 2.26442 163.862C1.5403 162.054 0.603481 160.349 0.218796 158.437C-0.16589 156.525 0.11923 154.369 1.52673 153.048C2.88444 151.801 4.92101 151.602 6.67698 152.104C11.3747 153.46 13.6692 158.677 14.864 163.406C16.0588 168.134 17.0182 173.401 20.8198 176.466C22.698 177.98 25.0514 178.749 27.2328 179.78C31.5774 181.832 35.0532 184.106 35.4243 188.998C35.8769 195.218 35.9176 201.579 34.759 207.732C34.1978 210.711 33.4013 213.703 33.6412 216.723C33.881 219.743 35.198 222.6 36.0579 225.53C36.1529 225.86 36.248 226.194 36.3294 226.529C37.4699 231.181 37.1033 235.887 36.42 240.634Z" fill="#30C59B"/>
<path d="M33.781 266.848C33.4835 266.321 33.3121 265.74 33.2782 265.146C32.8476 261.478 33.0626 257.771 33.915 254.167C33.939 254.061 33.9677 253.954 33.9964 253.848C33.8241 258.19 34.3699 262.568 33.781 266.848Z" fill="url(#paint15_linear_11_124)"/>
<path d="M72.3104 170.183C71.0524 171.863 69.2438 173.042 67.856 174.613C63.4688 179.581 64.1135 187.137 65.2237 193.699C66.3339 200.261 67.4979 207.595 63.7643 213.082C62.2109 215.34 59.9501 217.056 58.2803 219.251C56.4206 221.711 55.3661 224.695 55.263 227.787C55.1197 232.434 57.1432 237.067 56.2747 241.633C54.9899 248.376 48.0912 252.341 44.5411 258.203C42.2724 261.994 41.4541 266.491 42.2401 270.848C39.9294 270.464 37.6631 269.845 35.4757 269.001C34.8775 268.822 34.3349 268.491 33.8999 268.039C33.8382 267.966 33.7828 267.887 33.7343 267.804C33.4568 267.267 33.2965 266.675 33.2642 266.07C32.8615 262.324 33.0626 258.538 33.8596 254.857C33.882 254.748 33.9089 254.64 33.9357 254.531C34.5714 251.736 35.5115 248.995 35.7981 246.14C35.9504 244.29 35.9144 242.429 35.6906 240.585C36.3666 235.844 36.7292 231.142 35.5877 226.527C35.5071 226.192 35.4131 225.858 35.319 225.529C35.4041 225.24 35.5026 224.951 35.6145 224.666C36.7382 221.749 38.9139 219.319 39.9032 216.352C41.206 212.436 40.2793 208.173 40.3151 204.05C40.3733 196.928 43.5563 190.05 48.6687 185.19C50.4907 183.461 52.6351 182.115 53.4812 179.631C54.6138 176.293 53.9289 172.473 53.1186 169.162C52.165 165.351 51.2607 160.97 53.5125 157.764C54.6317 156.174 56.3956 155.14 58.231 154.526C62.6451 153.053 67.9142 153.979 71.1688 157.326C74.4234 160.672 75.1128 166.462 72.3104 170.183Z" fill="#30C59B"/>
<path d="M152.891 99.3016C152.891 99.3016 134.091 102.214 125.394 122.987C116.698 143.76 121.22 169.497 121.372 171.761C121.524 174.025 148.02 183.848 155.595 183.848C163.17 183.848 164.747 176.245 164.747 176.245L151.363 170.534L192.029 165.828H199.332L195.31 172.622C195.31 172.622 203.246 173.455 208.551 173.645C213.855 173.835 217.457 163.324 218.052 158.098C218.646 152.872 194.621 107 191.033 104.283C187.444 101.566 177.707 94.9269 152.891 99.3016Z" fill="#2BD0D0"/>
<path d="M175.916 59.7732C175.916 59.7732 179.352 61.696 179.043 67.9168C178.734 74.1377 176.797 83.4983 174.841 85.9233C172.886 88.3483 166.046 89.2984 166.046 89.2984C166.046 89.2984 169.777 98.1162 172.553 100.392C175.33 102.668 169.763 111.051 164.348 108.3C158.934 105.55 152.656 98.641 152.656 98.641C152.656 98.641 157.172 90.3209 155.645 85.9414C154.118 81.562 148.289 66.1931 152.656 61.9946C157.024 57.7961 166.442 51.7788 175.916 59.7732Z" fill="url(#paint16_linear_11_124)"/>
<path opacity="0.25" d="M145.952 128.848L143.062 165.18L151.888 169.848L159.062 168.586L150.11 157.493L145.952 128.848V128.848Z" fill="white"/>
<path opacity="0.25" d="M193.062 126.848C193.062 126.848 205.002 155.638 199.709 165.848L195.632 165.054L193.062 126.848Z" fill="white"/>
<path d="M160.157 174.545C160.157 174.545 155.527 178.395 157.594 181.389C159.66 184.384 162.126 184.298 164.183 182.959C166.24 181.62 170.28 178.442 175.094 179.901C179.907 181.359 181.076 182.288 181.076 182.288C181.076 182.288 183.612 180.743 182.953 179.195C182.295 177.646 177.261 172.629 175.802 171.978C174.344 171.328 168.288 173.326 168.288 173.326C168.288 173.326 163.838 172.154 160.157 174.545Z" fill="url(#paint17_linear_11_124)"/>
<path d="M200.857 165.913C200.857 165.913 196.6 166.42 195.524 169.218C194.449 172.017 194.062 172.358 194.062 172.358C194.062 172.358 196.466 172.818 197.466 171.515C198.466 170.213 199.506 170.76 199.506 170.76L199.208 172.431C199.208 172.431 205.74 173.417 208.69 172.358C211.641 171.299 212.907 170.056 212.907 170.056L214.062 167.23C214.062 167.23 211.276 165.209 209.175 164.896C207.073 164.583 200.857 165.913 200.857 165.913Z" fill="url(#paint18_linear_11_124)"/>
<path d="M223.469 195.848C223.469 195.848 238.297 207.202 236.98 222.561C235.662 237.919 233.726 260.723 233.726 260.723C233.726 260.723 227.745 263.255 223.782 260.723C219.82 258.191 217.42 223.539 215.457 220.229C213.494 216.92 201.683 202.001 189.062 200.716L223.469 195.848Z" fill="#25233A"/>
<path d="M149.062 207.007C149.062 207.007 156.104 213.736 168.655 215.849C181.207 217.962 187.057 219.725 190.893 230.541C194.73 241.356 198.409 264.634 199.613 267.235C200.817 269.837 205.938 268.509 205.938 268.509C205.938 268.509 208.834 265.181 208.834 246.672C208.834 220.869 210.625 215.58 204.175 209.098C197.724 202.616 191.856 200.848 191.856 200.848L149.062 207.007Z" fill="#3F3D56"/>
<path d="M199.062 268.848L200.297 278.313H202.61C202.61 278.313 217.503 279.104 217.97 278.763C218.437 278.421 217.253 271.267 211.611 271.47C205.968 271.672 205.598 270.121 205.598 270.121L199.062 268.848Z" fill="#25233A"/>
<path d="M225.062 261.619L227.408 270.848L253.033 267.374C253.033 267.374 253.935 261.312 245.817 261.913C243.675 262.069 242.078 263.557 239.503 263.57C236.928 263.583 234.461 262.541 233.162 260.848V260.848L225.062 261.619Z" fill="#25233A"/>
<path d="M313.173 143.653L216.521 148.842C214.183 148.965 212.188 147.167 212.062 144.824C212.062 144.752 212.062 144.676 212.062 144.603V75.9485C212.064 73.1683 214.282 70.8991 217.055 70.8403L313.312 68.8492C314.547 68.8239 315.742 69.2914 316.632 70.1489C317.523 71.0064 318.038 72.1836 318.062 73.4214V138.486C318.059 141.236 315.913 143.505 313.173 143.653Z" fill="#2BD0D0"/>
<path d="M319.173 143.653L222.516 148.843C220.179 148.963 218.186 147.163 218.063 144.82C218.063 144.748 218.063 144.676 218.063 144.604V75.9484C218.059 73.1679 220.278 70.8966 223.051 70.8401L319.321 68.8491C321.888 68.8013 324.008 70.8445 324.062 73.4168V138.486C324.059 141.237 321.913 143.505 319.173 143.653Z" fill="#2BD0D0"/>
<path d="M319.173 143.653L222.516 148.843C220.179 148.963 218.186 147.163 218.063 144.82C218.063 144.748 218.063 144.676 218.063 144.604V75.9484C218.059 73.1679 220.278 70.8966 223.051 70.8401L319.321 68.8491C321.888 68.8013 324.008 70.8445 324.062 73.4168V138.486C324.059 141.237 321.913 143.505 319.173 143.653Z" fill="url(#paint19_linear_11_124)"/>
<path d="M289.908 170.226L265.196 172.848C265.196 172.848 257.671 171.334 258.078 170.226C258.486 169.117 266.355 168.049 266.355 168.049V123.368V123.368C266.287 123.269 265.251 121.953 262.413 121.115V121.115C261.864 120.952 261.305 120.823 260.739 120.727C260.253 120.656 259.78 120.514 259.336 120.304C257.649 119.434 259.513 117.92 262.133 117.852C262.543 117.838 262.954 117.862 263.359 117.924H282.364C282.364 117.924 289.559 119.943 289.908 130.019C290.256 140.094 289.908 170.226 289.908 170.226Z" fill="#3A3054"/>
<path d="M270.062 170.32L265.349 172.848C265.349 172.848 257.663 171.334 258.079 170.226C258.495 169.117 266.545 168.049 266.545 168.049V123.364V123.364C266.448 123.26 265.27 122.075 262.52 121.111V121.111C261.496 120.76 260.445 120.488 259.377 120.3C257.654 119.43 259.558 117.916 262.234 117.848C264.512 118.15 269 120.584 269.291 121.972C269.582 123.36 270.062 170.32 270.062 170.32Z" fill="#51466B"/>
<path d="M179.062 263.848C178.181 264.849 177.772 265.219 178.292 264.395C178.562 264.237 178.82 264.054 179.062 263.848Z" fill="url(#paint20_linear_11_124)"/>
<defs>
<linearGradient id="paint0_linear_11_124" x1="138.062" y1="263.848" x2="145.062" y2="263.848" gradientUnits="userSpaceOnUse">
<stop stop-color="#183866"/>
<stop offset="1" stop-color="#1A7FC1"/>
</linearGradient>
<linearGradient id="paint1_linear_11_124" x1="156.057" y1="262.849" x2="160.063" y2="262.849" gradientUnits="userSpaceOnUse">
<stop/>
<stop offset="0.99" stop-opacity="0.01"/>
</linearGradient>
<linearGradient id="paint2_linear_11_124" x1="179.051" y1="83.5591" x2="186.58" y2="98.6496" gradientUnits="userSpaceOnUse">
<stop/>
<stop offset="0.99" stop-opacity="0.01"/>
</linearGradient>
<linearGradient id="paint3_linear_11_124" x1="196.082" y1="-62.9812" x2="165.757" y2="-63.0532" gradientUnits="userSpaceOnUse">
<stop/>
<stop offset="0.99" stop-opacity="0.01"/>
</linearGradient>
<linearGradient id="paint4_linear_11_124" x1="241.314" y1="59.3183" x2="233.484" y2="24.8151" gradientUnits="userSpaceOnUse">
<stop/>
<stop offset="0.99" stop-opacity="0.01"/>
</linearGradient>
<linearGradient id="paint5_linear_11_124" x1="201.986" y1="96.0072" x2="200.002" y2="95.3808" gradientUnits="userSpaceOnUse">
<stop/>
<stop offset="0.99" stop-opacity="0.01"/>
</linearGradient>
<linearGradient id="paint6_linear_11_124" x1="175.133" y1="63.6617" x2="163.678" y2="76.3125" gradientUnits="userSpaceOnUse">
<stop/>
<stop offset="0.99" stop-opacity="0.01"/>
</linearGradient>
<linearGradient id="paint7_linear_11_124" x1="355.299" y1="14.9706" x2="22.1324" y2="-57.3774" gradientUnits="userSpaceOnUse">
<stop/>
<stop offset="1" stop-opacity="0.01"/>
</linearGradient>
<linearGradient id="paint8_linear_11_124" x1="144.283" y1="165.361" x2="322.281" y2="165.361" gradientUnits="userSpaceOnUse">
<stop stop-color="#183866"/>
<stop offset="1" stop-color="#1A7FC1"/>
</linearGradient>
<linearGradient id="paint9_linear_11_124" x1="51.9315" y1="152.656" x2="52.9491" y2="224.475" gradientUnits="userSpaceOnUse">
<stop/>
<stop offset="0.99" stop-opacity="0.01"/>
</linearGradient>
<linearGradient id="paint10_linear_11_124" x1="133.759" y1="170.131" x2="139.938" y2="201.765" gradientUnits="userSpaceOnUse">
<stop/>
<stop offset="0.99" stop-opacity="0.01"/>
</linearGradient>
<linearGradient id="paint11_linear_11_124" x1="161.391" y1="176.976" x2="160.991" y2="189.278" gradientUnits="userSpaceOnUse">
<stop/>
<stop offset="0.99" stop-opacity="0.01"/>
</linearGradient>
<linearGradient id="paint12_linear_11_124" x1="86.0976" y1="26.7392" x2="56.3339" y2="22.5657" gradientUnits="userSpaceOnUse">
<stop/>
<stop offset="0.99" stop-opacity="0.01"/>
</linearGradient>
<linearGradient id="paint13_linear_11_124" x1="90.4492" y1="46.0555" x2="66.7837" y2="39.7689" gradientUnits="userSpaceOnUse">
<stop/>
<stop offset="0.99" stop-opacity="0.01"/>
</linearGradient>
<linearGradient id="paint14_linear_11_124" x1="-129.883" y1="251.713" x2="-130.303" y2="313.622" gradientUnits="userSpaceOnUse">
<stop/>
<stop offset="0.99" stop-opacity="0.01"/>
</linearGradient>
<linearGradient id="paint15_linear_11_124" x1="62.2693" y1="41.5572" x2="58.7476" y2="41.645" gradientUnits="userSpaceOnUse">
<stop/>
<stop offset="0.99" stop-opacity="0.01"/>
</linearGradient>
<linearGradient id="paint16_linear_11_124" x1="151.051" y1="108.854" x2="179.061" y2="108.854" gradientUnits="userSpaceOnUse">
<stop stop-color="#ECC4D7"/>
<stop offset="0.42" stop-color="#EFD4D1"/>
<stop offset="1" stop-color="#F2EAC9"/>
</linearGradient>
<linearGradient id="paint17_linear_11_124" x1="182.811" y1="158.254" x2="208.81" y2="158.254" gradientUnits="userSpaceOnUse">
<stop stop-color="#ECC4D7"/>
<stop offset="0.42" stop-color="#EFD4D1"/>
<stop offset="1" stop-color="#F2EAC9"/>
</linearGradient>
<linearGradient id="paint18_linear_11_124" x1="218.924" y1="162.083" x2="238.924" y2="162.083" gradientUnits="userSpaceOnUse">
<stop stop-color="#ECC4D7"/>
<stop offset="0.42" stop-color="#EFD4D1"/>
<stop offset="1" stop-color="#F2EAC9"/>
</linearGradient>
<linearGradient id="paint19_linear_11_124" x1="305.836" y1="137.33" x2="222.253" y2="234.702" gradientUnits="userSpaceOnUse">
<stop stop-color="#362958" stop-opacity="0.500601"/>
<stop offset="1" stop-color="#34313D" stop-opacity="0.01"/>
</linearGradient>
<linearGradient id="paint20_linear_11_124" x1="218.188" y1="-78.9865" x2="217.022" y2="-79.4178" gradientUnits="userSpaceOnUse">
<stop/>
<stop offset="0.99" stop-opacity="0.01"/>
</linearGradient>
</defs>
</svg>
