<svg width="185" height="29" viewBox="0 0 185 29" fill="none" xmlns="http://www.w3.org/2000/svg">
<path d="M10.2322 28.0149C7.34777 28.0149 4.97927 27.3348 3.12667 25.9747C1.27407 24.5911 0.277422 22.6213 0.136719 20.0651H7.48848C7.55883 20.9328 7.81679 21.566 8.26235 21.9646C8.70791 22.3633 9.28245 22.5626 9.98597 22.5626C10.6191 22.5626 11.135 22.4102 11.5337 22.1053C11.9558 21.777 12.1669 21.3315 12.1669 20.7687C12.1669 20.0417 11.8268 19.4789 11.1468 19.0802C10.4667 18.6816 9.36452 18.236 7.84024 17.7435C6.22215 17.2042 4.90891 16.6883 3.90054 16.1958C2.91561 15.6799 2.04794 14.9412 1.29752 13.9797C0.570555 12.9948 0.207071 11.7167 0.207071 10.1455C0.207071 8.55091 0.605731 7.19077 1.40305 6.06514C2.20037 4.91607 3.30255 4.04839 4.70958 3.46213C6.11662 2.87586 7.71126 2.58273 9.4935 2.58273C12.3779 2.58273 14.6761 3.2628 16.388 4.62293C18.1233 5.95962 19.0496 7.84739 19.1669 10.2863H11.6744C11.651 9.53583 11.4165 8.97302 10.9709 8.59781C10.5488 8.2226 9.99769 8.03499 9.31762 8.03499C8.80171 8.03499 8.3796 8.18742 8.05129 8.49228C7.72298 8.79714 7.55883 9.23097 7.55883 9.79379C7.55883 10.2628 7.73471 10.6732 8.08647 11.0249C8.46168 11.3533 8.91896 11.6464 9.45833 11.9043C9.99769 12.1388 10.795 12.4437 11.8503 12.8189C13.4215 13.3583 14.7113 13.8976 15.7196 14.437C16.7515 14.9529 17.6309 15.6916 18.3578 16.6531C19.1082 17.5911 19.4835 18.7871 19.4835 20.241C19.4835 21.7184 19.1082 23.0434 18.3578 24.2159C17.6309 25.3884 16.5639 26.3147 15.1568 26.9948C13.7732 27.6749 12.1317 28.0149 10.2322 28.0149Z" fill="#34313D"/>
<path d="M35.6685 7.85911C37.9197 7.85911 39.702 8.62126 41.0152 10.1455C42.3519 11.6464 43.0202 13.6866 43.0202 16.2661V27.7687H36.1258V17.1807C36.1258 16.0551 35.8326 15.1757 35.2464 14.5425C34.6601 13.8859 33.8745 13.5576 32.8896 13.5576C31.8578 13.5576 31.0487 13.8859 30.4625 14.5425C29.8762 15.1757 29.5831 16.0551 29.5831 17.1807V27.7687H22.6886V1.73851H29.5831V10.8491C30.1928 9.95794 31.0135 9.2427 32.0454 8.70333C33.1006 8.14052 34.3083 7.85911 35.6685 7.85911Z" fill="#34313D"/>
<path d="M55.9842 28.0149C54.0144 28.0149 52.2438 27.6045 50.6726 26.7837C49.1249 25.963 47.9055 24.7904 47.0144 23.2661C46.1232 21.7419 45.6777 19.9479 45.6777 17.8842C45.6777 15.844 46.1232 14.0618 47.0144 12.5375C47.9289 11.0132 49.1601 9.84069 50.7078 9.01992C52.279 8.19915 54.0495 7.78876 56.0194 7.78876C57.9892 7.78876 59.748 8.19915 61.2958 9.01992C62.867 9.84069 64.0981 11.0132 64.9892 12.5375C65.9038 14.0618 66.3611 15.844 66.3611 17.8842C66.3611 19.9244 65.9038 21.7184 64.9892 23.2661C64.0981 24.7904 62.867 25.963 61.2958 26.7837C59.7246 27.6045 57.9541 28.0149 55.9842 28.0149ZM55.9842 22.035C56.9457 22.035 57.743 21.6832 58.3762 20.9797C59.0328 20.2528 59.3611 19.2209 59.3611 17.8842C59.3611 16.5476 59.0328 15.5275 58.3762 14.8239C57.743 14.1204 56.9574 13.7687 56.0194 13.7687C55.0814 13.7687 54.2958 14.1204 53.6626 14.8239C53.0294 15.5275 52.7128 16.5476 52.7128 17.8842C52.7128 19.2444 53.0177 20.2762 53.6274 20.9797C54.2371 21.6832 55.0227 22.035 55.9842 22.035Z" fill="#34313D"/>
<path d="M76.0606 11.5174C76.8344 10.3918 77.7725 9.50065 78.8746 8.84404C79.9768 8.18742 81.1611 7.85911 82.4274 7.85911V15.2109H80.4927C78.9919 15.2109 77.878 15.504 77.151 16.0903C76.424 16.6765 76.0606 17.6966 76.0606 19.1506V27.7687H69.1661V8.03499H76.0606V11.5174Z" fill="#34313D"/>
<path d="M96.5423 21.8943V27.7687H93.5523C88.5104 27.7687 85.9895 25.2712 85.9895 20.2762V13.7687H83.5624V8.03499H85.9895V3.25107H92.9192V8.03499H96.5071V13.7687H92.9192V20.3817C92.9192 20.9211 93.0364 21.308 93.2709 21.5425C93.5289 21.777 93.951 21.8943 94.5372 21.8943H96.5423Z" fill="#34313D"/>
<path d="M110.363 13.7687H107.267V27.7687H100.338V13.7687H98.192V8.03499H100.338V7.85911C100.338 5.32645 101.076 3.39178 102.554 2.05509C104.055 0.69496 106.2 0.0148926 108.991 0.0148926C109.554 0.0148926 109.988 0.0266177 110.292 0.050068V5.92444C110.105 5.90099 109.847 5.88926 109.519 5.88926C108.768 5.88926 108.217 6.06514 107.865 6.4169C107.514 6.74521 107.314 7.28457 107.267 8.03499H110.363V13.7687Z" fill="#34313D"/>
<path d="M122.008 28.0149C120.038 28.0149 118.267 27.6045 116.696 26.7837C115.148 25.963 113.929 24.7904 113.038 23.2661C112.147 21.7419 111.701 19.9479 111.701 17.8842C111.701 15.844 112.147 14.0618 113.038 12.5375C113.952 11.0132 115.184 9.84069 116.731 9.01992C118.302 8.19915 120.073 7.78876 122.043 7.78876C124.013 7.78876 125.771 8.19915 127.319 9.01992C128.89 9.84069 130.122 11.0132 131.013 12.5375C131.927 14.0618 132.385 15.844 132.385 17.8842C132.385 19.9244 131.927 21.7184 131.013 23.2661C130.122 24.7904 128.89 25.963 127.319 26.7837C125.748 27.6045 123.978 28.0149 122.008 28.0149ZM122.008 22.035C122.969 22.035 123.766 21.6832 124.4 20.9797C125.056 20.2528 125.385 19.2209 125.385 17.8842C125.385 16.5476 125.056 15.5275 124.4 14.8239C123.766 14.1204 122.981 13.7687 122.043 13.7687C121.105 13.7687 120.319 14.1204 119.686 14.8239C119.053 15.5275 118.736 16.5476 118.736 17.8842C118.736 19.2444 119.041 20.2762 119.651 20.9797C120.261 21.6832 121.046 22.035 122.008 22.035Z" fill="#34313D"/>
<path d="M142.084 11.5174C142.858 10.3918 143.796 9.50065 144.898 8.84404C146 8.18742 147.185 7.85911 148.451 7.85911V15.2109H146.516C145.015 15.2109 143.901 15.504 143.174 16.0903C142.448 16.6765 142.084 17.6966 142.084 19.1506V27.7687H135.19V8.03499H142.084V11.5174Z" fill="#34313D"/>
<path d="M176.706 7.85911C179.192 7.85911 181.139 8.60953 182.546 10.1104C183.976 11.6112 184.691 13.6631 184.691 16.2661V27.7687H177.797V17.1807C177.797 16.1254 177.504 15.3047 176.918 14.7184C176.331 14.1321 175.534 13.839 174.526 13.839C173.517 13.839 172.72 14.1321 172.134 14.7184C171.547 15.3047 171.254 16.1254 171.254 17.1807V27.7687H164.36V17.1807C164.36 16.1254 164.067 15.3047 163.48 14.7184C162.918 14.1321 162.132 13.839 161.124 13.839C160.092 13.839 159.283 14.1321 158.696 14.7184C158.11 15.3047 157.817 16.1254 157.817 17.1807V27.7687H150.923V8.03499H157.817V10.638C158.427 9.79379 159.212 9.12545 160.174 8.63298C161.159 8.11707 162.284 7.85911 163.551 7.85911C165.005 7.85911 166.294 8.1757 167.42 8.80886C168.569 9.44203 169.472 10.3332 170.129 11.4822C170.832 10.4035 171.758 9.53583 172.907 8.87922C174.057 8.19915 175.323 7.85911 176.706 7.85911Z" fill="#34313D"/>
</svg>
