<svg width="140" height="23" viewBox="0 0 140 23" fill="none" xmlns="http://www.w3.org/2000/svg">
<path d="M8.58167 22.2109C7.14433 22.2109 5.85633 21.9775 4.71767 21.5109C3.579 21.0442 2.66433 20.3535 1.97367 19.4389C1.30167 18.5242 0.947001 17.4229 0.909668 16.1349H6.00567C6.08033 16.8629 6.33233 17.4229 6.76167 17.8149C7.191 18.1882 7.751 18.3749 8.44167 18.3749C9.151 18.3749 9.711 18.2162 10.1217 17.8989C10.5323 17.5629 10.7377 17.1055 10.7377 16.5269C10.7377 16.0415 10.5697 15.6402 10.2337 15.3229C9.91633 15.0055 9.515 14.7442 9.02967 14.5389C8.563 14.3335 7.891 14.1002 7.01367 13.8389C5.74433 13.4469 4.70833 13.0549 3.90567 12.6629C3.103 12.2709 2.41233 11.6922 1.83367 10.9269C1.255 10.1615 0.965668 9.16287 0.965668 7.93087C0.965668 6.10153 1.62833 4.67353 2.95367 3.64687C4.279 2.60153 6.00567 2.07887 8.13367 2.07887C10.299 2.07887 12.0443 2.60153 13.3697 3.64687C14.695 4.67353 15.4043 6.11087 15.4977 7.95887H10.3177C10.2803 7.3242 10.047 6.82953 9.61767 6.47487C9.18833 6.10153 8.63767 5.91487 7.96567 5.91487C7.387 5.91487 6.92034 6.07353 6.56567 6.39087C6.211 6.68953 6.03367 7.1282 6.03367 7.70687C6.03367 8.34153 6.33233 8.8362 6.92967 9.19087C7.527 9.54553 8.46033 9.9282 9.72967 10.3389C10.999 10.7682 12.0257 11.1789 12.8097 11.5709C13.6123 11.9629 14.303 12.5322 14.8817 13.2789C15.4603 14.0255 15.7497 14.9869 15.7497 16.1629C15.7497 17.2829 15.4603 18.3002 14.8817 19.2149C14.3217 20.1295 13.5003 20.8575 12.4177 21.3989C11.335 21.9402 10.0563 22.2109 8.58167 22.2109Z" fill="#34313D"/>
<path d="M27.6002 6.22287C29.3922 6.22287 30.8296 6.8202 31.9122 8.01487C32.9949 9.19087 33.5362 10.8149 33.5362 12.8869V22.0149H28.7762V13.5309C28.7762 12.4855 28.5056 11.6735 27.9642 11.0949C27.4229 10.5162 26.6949 10.2269 25.7802 10.2269C24.8656 10.2269 24.1376 10.5162 23.5962 11.0949C23.0549 11.6735 22.7842 12.4855 22.7842 13.5309V22.0149H17.9962V1.29487H22.7842V8.49087C23.2696 7.8002 23.9322 7.24953 24.7722 6.83887C25.6122 6.4282 26.5549 6.22287 27.6002 6.22287Z" fill="#34313D"/>
<path d="M43.2754 22.2389C41.7448 22.2389 40.3634 21.9122 39.1314 21.2589C37.9181 20.6055 36.9568 19.6722 36.2474 18.4589C35.5568 17.2455 35.2114 15.8269 35.2114 14.2029C35.2114 12.5975 35.5661 11.1882 36.2754 9.97487C36.9848 8.74287 37.9554 7.8002 39.1874 7.14687C40.4194 6.49353 41.8008 6.16687 43.3314 6.16687C44.8621 6.16687 46.2434 6.49353 47.4754 7.14687C48.7074 7.8002 49.6781 8.74287 50.3874 9.97487C51.0967 11.1882 51.4514 12.5975 51.4514 14.2029C51.4514 15.8082 51.0874 17.2269 50.3594 18.4589C49.6501 19.6722 48.6701 20.6055 47.4194 21.2589C46.1874 21.9122 44.8061 22.2389 43.2754 22.2389ZM43.2754 18.0949C44.1901 18.0949 44.9648 17.7589 45.5994 17.0869C46.2528 16.4149 46.5794 15.4535 46.5794 14.2029C46.5794 12.9522 46.2621 11.9909 45.6274 11.3189C45.0114 10.6469 44.2461 10.3109 43.3314 10.3109C42.3981 10.3109 41.6234 10.6469 41.0074 11.3189C40.3914 11.9722 40.0834 12.9335 40.0834 14.2029C40.0834 15.4535 40.3821 16.4149 40.9794 17.0869C41.5954 17.7589 42.3608 18.0949 43.2754 18.0949Z" fill="#34313D"/>
<path d="M58.0795 8.99487C58.6395 8.1362 59.3395 7.4642 60.1795 6.97887C61.0195 6.47487 61.9529 6.22287 62.9795 6.22287V11.2909H61.6635C60.4689 11.2909 59.5729 11.5522 58.9755 12.0749C58.3782 12.5789 58.0795 13.4749 58.0795 14.7629V22.0149H53.2915V6.39087H58.0795V8.99487Z" fill="#34313D"/>
<path d="M73.2761 17.9549V22.0149H70.8401C69.1041 22.0149 67.7508 21.5949 66.7801 20.7549C65.8094 19.8962 65.3241 18.5055 65.3241 16.5829V10.3669H63.4201V6.39087H65.3241V2.58287H70.1121V6.39087H73.2481V10.3669H70.1121V16.6389C70.1121 17.1055 70.2241 17.4415 70.4481 17.6469C70.6721 17.8522 71.0454 17.9549 71.5681 17.9549H73.2761Z" fill="#34313D"/>
<path d="M83.0831 10.3669H80.5071V22.0149H75.7191V10.3669H73.9831V6.39087H75.7191V5.94287C75.7191 4.0202 76.2698 2.5642 77.3711 1.57487C78.4724 0.566866 80.0871 0.0628662 82.2151 0.0628662C82.5698 0.0628662 82.8311 0.0721994 82.9991 0.0908659V4.15087C82.0844 4.09487 81.4404 4.22553 81.0671 4.54287C80.6938 4.8602 80.5071 5.42953 80.5071 6.25087V6.39087H83.0831V10.3669Z" fill="#34313D"/>
<path d="M91.7449 22.2389C90.2143 22.2389 88.833 21.9122 87.601 21.2589C86.3876 20.6055 85.4263 19.6722 84.7169 18.4589C84.0263 17.2455 83.681 15.8269 83.681 14.2029C83.681 12.5975 84.0356 11.1882 84.7449 9.97487C85.4543 8.74287 86.425 7.8002 87.657 7.14687C88.889 6.49353 90.2703 6.16687 91.8009 6.16687C93.3316 6.16687 94.713 6.49353 95.945 7.14687C97.177 7.8002 98.1476 8.74287 98.857 9.97487C99.5663 11.1882 99.921 12.5975 99.921 14.2029C99.921 15.8082 99.5569 17.2269 98.8289 18.4589C98.1196 19.6722 97.1396 20.6055 95.889 21.2589C94.657 21.9122 93.2756 22.2389 91.7449 22.2389ZM91.7449 18.0949C92.6596 18.0949 93.4343 17.7589 94.069 17.0869C94.7223 16.4149 95.049 15.4535 95.049 14.2029C95.049 12.9522 94.7316 11.9909 94.097 11.3189C93.481 10.6469 92.7156 10.3109 91.8009 10.3109C90.8676 10.3109 90.093 10.6469 89.477 11.3189C88.861 11.9722 88.553 12.9335 88.553 14.2029C88.553 15.4535 88.8516 16.4149 89.449 17.0869C90.065 17.7589 90.8303 18.0949 91.7449 18.0949Z" fill="#34313D"/>
<path d="M106.549 8.99487C107.109 8.1362 107.809 7.4642 108.649 6.97887C109.489 6.47487 110.422 6.22287 111.449 6.22287V11.2909H110.133C108.938 11.2909 108.042 11.5522 107.445 12.0749C106.848 12.5789 106.549 13.4749 106.549 14.7629V22.0149H101.761V6.39087H106.549V8.99487Z" fill="#34313D"/>
<path d="M132.974 6.22287C134.915 6.22287 136.455 6.81087 137.594 7.98687C138.751 9.16287 139.33 10.7962 139.33 12.8869V22.0149H134.57V13.5309C134.57 12.5229 134.299 11.7482 133.758 11.2069C133.235 10.6469 132.507 10.3669 131.574 10.3669C130.64 10.3669 129.903 10.6469 129.362 11.2069C128.839 11.7482 128.578 12.5229 128.578 13.5309V22.0149H123.818V13.5309C123.818 12.5229 123.547 11.7482 123.006 11.2069C122.483 10.6469 121.755 10.3669 120.822 10.3669C119.888 10.3669 119.151 10.6469 118.61 11.2069C118.087 11.7482 117.826 12.5229 117.826 13.5309V22.0149H113.038V6.39087H117.826V8.35087C118.311 7.69753 118.946 7.1842 119.73 6.81087C120.514 6.41887 121.4 6.22287 122.39 6.22287C123.566 6.22287 124.611 6.47487 125.526 6.97887C126.459 7.48287 127.187 8.20153 127.71 9.13487C128.251 8.2762 128.988 7.5762 129.922 7.03487C130.855 6.49353 131.872 6.22287 132.974 6.22287Z" fill="#34313D"/>
</svg>
