<svg width="140" height="23" viewBox="0 0 140 23" fill="none" xmlns="http://www.w3.org/2000/svg">
<path d="M8.58167 22.228C7.14433 22.228 5.85633 21.9946 4.71767 21.528C3.579 21.0613 2.66433 20.3706 1.97367 19.456C1.30167 18.5413 0.947001 17.44 0.909668 16.152H6.00567C6.08033 16.88 6.33233 17.44 6.76167 17.832C7.191 18.2053 7.751 18.392 8.44167 18.392C9.151 18.392 9.711 18.2333 10.1217 17.916C10.5323 17.58 10.7377 17.1226 10.7377 16.544C10.7377 16.0586 10.5697 15.6573 10.2337 15.34C9.91633 15.0226 9.515 14.7613 9.02967 14.556C8.563 14.3506 7.891 14.1173 7.01367 13.856C5.74433 13.464 4.70833 13.072 3.90567 12.68C3.103 12.288 2.41233 11.7093 1.83367 10.944C1.255 10.1786 0.965668 9.17996 0.965668 7.94796C0.965668 6.11862 1.62833 4.69062 2.95367 3.66396C4.279 2.61862 6.00567 2.09596 8.13367 2.09596C10.299 2.09596 12.0443 2.61862 13.3697 3.66396C14.695 4.69062 15.4043 6.12796 15.4977 7.97596H10.3177C10.2803 7.34129 10.047 6.84662 9.61767 6.49196C9.18833 6.11862 8.63767 5.93196 7.96567 5.93196C7.387 5.93196 6.92034 6.09062 6.56567 6.40796C6.211 6.70662 6.03367 7.14529 6.03367 7.72396C6.03367 8.35862 6.33233 8.85329 6.92967 9.20796C7.527 9.56262 8.46033 9.94529 9.72967 10.356C10.999 10.7853 12.0257 11.196 12.8097 11.588C13.6123 11.98 14.303 12.5493 14.8817 13.296C15.4603 14.0426 15.7497 15.004 15.7497 16.18C15.7497 17.3 15.4603 18.3173 14.8817 19.232C14.3217 20.1466 13.5003 20.8746 12.4177 21.416C11.335 21.9573 10.0563 22.228 8.58167 22.228Z" fill="#EFF1F7"/>
<path d="M27.6002 6.23996C29.3922 6.23996 30.8296 6.83729 31.9122 8.03196C32.9949 9.20796 33.5362 10.832 33.5362 12.904V22.032H28.7762V13.548C28.7762 12.5026 28.5056 11.6906 27.9642 11.112C27.4229 10.5333 26.6949 10.244 25.7802 10.244C24.8656 10.244 24.1376 10.5333 23.5962 11.112C23.0549 11.6906 22.7842 12.5026 22.7842 13.548V22.032H17.9962V1.31196H22.7842V8.50796C23.2696 7.81729 23.9322 7.26662 24.7722 6.85596C25.6122 6.44529 26.5549 6.23996 27.6002 6.23996Z" fill="#EFF1F7"/>
<path d="M43.2754 22.256C41.7448 22.256 40.3634 21.9293 39.1314 21.276C37.9181 20.6226 36.9568 19.6893 36.2474 18.476C35.5568 17.2626 35.2114 15.844 35.2114 14.22C35.2114 12.6146 35.5661 11.2053 36.2754 9.99196C36.9848 8.75996 37.9554 7.81729 39.1874 7.16396C40.4194 6.51062 41.8008 6.18396 43.3314 6.18396C44.8621 6.18396 46.2434 6.51062 47.4754 7.16396C48.7074 7.81729 49.6781 8.75996 50.3874 9.99196C51.0967 11.2053 51.4514 12.6146 51.4514 14.22C51.4514 15.8253 51.0874 17.244 50.3594 18.476C49.6501 19.6893 48.6701 20.6226 47.4194 21.276C46.1874 21.9293 44.8061 22.256 43.2754 22.256ZM43.2754 18.112C44.1901 18.112 44.9648 17.776 45.5994 17.104C46.2528 16.432 46.5794 15.4706 46.5794 14.22C46.5794 12.9693 46.2621 12.008 45.6274 11.336C45.0114 10.664 44.2461 10.328 43.3314 10.328C42.3981 10.328 41.6234 10.664 41.0074 11.336C40.3914 11.9893 40.0834 12.9506 40.0834 14.22C40.0834 15.4706 40.3821 16.432 40.9794 17.104C41.5954 17.776 42.3608 18.112 43.2754 18.112Z" fill="#EFF1F7"/>
<path d="M58.0795 9.01196C58.6395 8.15329 59.3395 7.48129 60.1795 6.99596C61.0195 6.49196 61.9529 6.23996 62.9795 6.23996V11.308H61.6635C60.4689 11.308 59.5729 11.5693 58.9755 12.092C58.3782 12.596 58.0795 13.492 58.0795 14.78V22.032H53.2915V6.40796H58.0795V9.01196Z" fill="#EFF1F7"/>
<path d="M73.2761 17.972V22.032H70.8401C69.1041 22.032 67.7508 21.612 66.7801 20.772C65.8094 19.9133 65.3241 18.5226 65.3241 16.6V10.384H63.4201V6.40796H65.3241V2.59996H70.1121V6.40796H73.2481V10.384H70.1121V16.656C70.1121 17.1226 70.2241 17.4586 70.4481 17.664C70.6721 17.8693 71.0454 17.972 71.5681 17.972H73.2761Z" fill="#EFF1F7"/>
<path d="M83.0831 10.384H80.5071V22.032H75.7191V10.384H73.9831V6.40796H75.7191V5.95996C75.7191 4.03729 76.2698 2.58129 77.3711 1.59196C78.4724 0.583956 80.0871 0.0799561 82.2151 0.0799561C82.5698 0.0799561 82.8311 0.0892893 82.9991 0.107956V4.16796C82.0844 4.11196 81.4404 4.24262 81.0671 4.55996C80.6938 4.87729 80.5071 5.44662 80.5071 6.26796V6.40796H83.0831V10.384Z" fill="#EFF1F7"/>
<path d="M91.7449 22.256C90.2143 22.256 88.833 21.9293 87.601 21.276C86.3876 20.6226 85.4263 19.6893 84.7169 18.476C84.0263 17.2626 83.681 15.844 83.681 14.22C83.681 12.6146 84.0356 11.2053 84.7449 9.99196C85.4543 8.75996 86.425 7.81729 87.657 7.16396C88.889 6.51062 90.2703 6.18396 91.8009 6.18396C93.3316 6.18396 94.713 6.51062 95.945 7.16396C97.177 7.81729 98.1476 8.75996 98.857 9.99196C99.5663 11.2053 99.921 12.6146 99.921 14.22C99.921 15.8253 99.5569 17.244 98.8289 18.476C98.1196 19.6893 97.1396 20.6226 95.889 21.276C94.657 21.9293 93.2756 22.256 91.7449 22.256ZM91.7449 18.112C92.6596 18.112 93.4343 17.776 94.069 17.104C94.7223 16.432 95.049 15.4706 95.049 14.22C95.049 12.9693 94.7316 12.008 94.097 11.336C93.481 10.664 92.7156 10.328 91.8009 10.328C90.8676 10.328 90.093 10.664 89.477 11.336C88.861 11.9893 88.553 12.9506 88.553 14.22C88.553 15.4706 88.8516 16.432 89.449 17.104C90.065 17.776 90.8303 18.112 91.7449 18.112Z" fill="#EFF1F7"/>
<path d="M106.549 9.01196C107.109 8.15329 107.809 7.48129 108.649 6.99596C109.489 6.49196 110.422 6.23996 111.449 6.23996V11.308H110.133C108.938 11.308 108.042 11.5693 107.445 12.092C106.848 12.596 106.549 13.492 106.549 14.78V22.032H101.761V6.40796H106.549V9.01196Z" fill="#EFF1F7"/>
<path d="M132.974 6.23996C134.915 6.23996 136.455 6.82796 137.594 8.00396C138.751 9.17996 139.33 10.8133 139.33 12.904V22.032H134.57V13.548C134.57 12.54 134.299 11.7653 133.758 11.224C133.235 10.664 132.507 10.384 131.574 10.384C130.64 10.384 129.903 10.664 129.362 11.224C128.839 11.7653 128.578 12.54 128.578 13.548V22.032H123.818V13.548C123.818 12.54 123.547 11.7653 123.006 11.224C122.483 10.664 121.755 10.384 120.822 10.384C119.888 10.384 119.151 10.664 118.61 11.224C118.087 11.7653 117.826 12.54 117.826 13.548V22.032H113.038V6.40796H117.826V8.36796C118.311 7.71462 118.946 7.20129 119.73 6.82796C120.514 6.43596 121.4 6.23996 122.39 6.23996C123.566 6.23996 124.611 6.49196 125.526 6.99596C126.459 7.49996 127.187 8.21862 127.71 9.15196C128.251 8.29329 128.988 7.59329 129.922 7.05196C130.855 6.51062 131.872 6.23996 132.974 6.23996Z" fill="#EFF1F7"/>
</svg>
