<svg width="185" height="29" viewBox="0 0 185 29" fill="none" xmlns="http://www.w3.org/2000/svg">
<path d="M10.3806 28.6724C7.49621 28.6724 5.1277 27.9923 3.27511 26.6322C1.42251 25.2486 0.42586 23.2787 0.285156 20.7226H7.63692C7.70727 21.5903 7.96522 22.2235 8.41079 22.6221C8.85635 23.0208 9.43089 23.2201 10.1344 23.2201C10.7676 23.2201 11.2835 23.0677 11.6821 22.7628C12.1043 22.4345 12.3153 21.9889 12.3153 21.4261C12.3153 20.6992 11.9753 20.1364 11.2952 19.7377C10.6151 19.339 9.51296 18.8935 7.98867 18.401C6.37058 17.8616 5.05735 17.3457 4.04898 16.8533C3.06405 16.3374 2.19638 15.5987 1.44596 14.6372C0.718992 13.6523 0.355508 12.3742 0.355508 10.803C0.355508 9.20838 0.754168 7.84824 1.55149 6.72261C2.34881 5.57354 3.45099 4.70586 4.85802 4.1196C6.26506 3.53334 7.8597 3.2402 9.64194 3.2402C12.5264 3.2402 14.8245 3.92027 16.5364 5.2804C18.2718 6.61709 19.1981 8.50486 19.3153 10.9437H11.8228C11.7994 10.1933 11.5649 9.63049 11.1193 9.25528C10.6972 8.88007 10.1461 8.69246 9.46606 8.69246C8.95015 8.69246 8.52804 8.84489 8.19973 9.14975C7.87142 9.45461 7.70727 9.88844 7.70727 10.4513C7.70727 10.9203 7.88315 11.3307 8.23491 11.6824C8.61012 12.0107 9.0674 12.3039 9.60677 12.5618C10.1461 12.7963 10.9434 13.1012 11.9987 13.4764C13.5699 14.0157 14.8597 14.5551 15.8681 15.0945C16.8999 15.6104 17.7793 16.3491 18.5063 17.3106C19.2567 18.2486 19.6319 19.4446 19.6319 20.8985C19.6319 22.3759 19.2567 23.7008 18.5063 24.8734C17.7793 26.0459 16.7123 26.9722 15.3053 27.6523C13.9217 28.3323 12.2801 28.6724 10.3806 28.6724Z" fill="#EFF1F7"/>
<path d="M35.8169 8.51658C38.0682 8.51658 39.8504 9.27873 41.1637 10.803C42.5003 12.3039 43.1687 14.3441 43.1687 16.9236V28.4261H36.2742V17.8382C36.2742 16.7126 35.9811 15.8332 35.3948 15.2C34.8085 14.5434 34.023 14.2151 33.038 14.2151C32.0062 14.2151 31.1972 14.5434 30.6109 15.2C30.0246 15.8332 29.7315 16.7126 29.7315 17.8382V28.4261H22.837V2.39598H29.7315V11.5065C30.3412 10.6154 31.162 9.90017 32.1938 9.3608C33.2491 8.79799 34.4568 8.51658 35.8169 8.51658Z" fill="#EFF1F7"/>
<path d="M56.1326 28.6724C54.1628 28.6724 52.3923 28.262 50.8211 27.4412C49.2733 26.6204 48.0539 25.4479 47.1628 23.9236C46.2717 22.3993 45.8261 20.6054 45.8261 18.5417C45.8261 16.5015 46.2717 14.7193 47.1628 13.195C48.0774 11.6707 49.3085 10.4982 50.8563 9.67739C52.4274 8.85662 54.198 8.44623 56.1678 8.44623C58.1377 8.44623 59.8965 8.85662 61.4442 9.67739C63.0154 10.4982 64.2465 11.6707 65.1377 13.195C66.0522 14.7193 66.5095 16.5015 66.5095 18.5417C66.5095 20.5819 66.0522 22.3759 65.1377 23.9236C64.2465 25.4479 63.0154 26.6204 61.4442 27.4412C59.873 28.262 58.1025 28.6724 56.1326 28.6724ZM56.1326 22.6925C57.0941 22.6925 57.8914 22.3407 58.5246 21.6372C59.1812 20.9102 59.5095 19.8784 59.5095 18.5417C59.5095 17.205 59.1812 16.1849 58.5246 15.4814C57.8914 14.7779 57.1058 14.4261 56.1678 14.4261C55.2298 14.4261 54.4442 14.7779 53.811 15.4814C53.1779 16.1849 52.8613 17.205 52.8613 18.5417C52.8613 19.9018 53.1661 20.9337 53.7759 21.6372C54.3856 22.3407 55.1712 22.6925 56.1326 22.6925Z" fill="#EFF1F7"/>
<path d="M76.209 12.1749C76.9829 11.0492 77.9209 10.1581 79.0231 9.50151C80.1253 8.84489 81.3095 8.51658 82.5758 8.51658V15.8683H80.6412C79.1403 15.8683 78.0264 16.1615 77.2995 16.7477C76.5725 17.334 76.209 18.3541 76.209 19.808V28.4261H69.3145V8.69246H76.209V12.1749Z" fill="#EFF1F7"/>
<path d="M96.6907 22.5518V28.4261H93.7008C88.6589 28.4261 86.1379 25.9286 86.1379 20.9337V14.4261H83.7108V8.69246H86.1379V3.90854H93.0676V8.69246H96.6555V14.4261H93.0676V21.0392C93.0676 21.5786 93.1848 21.9655 93.4194 22.2C93.6773 22.4345 94.0994 22.5518 94.6857 22.5518H96.6907Z" fill="#EFF1F7"/>
<path d="M110.511 14.4261H107.416V28.4261H100.486V14.4261H98.3404V8.69246H100.486V8.51658C100.486 5.98392 101.225 4.04925 102.702 2.71257C104.203 1.35243 106.349 0.672363 109.139 0.672363C109.702 0.672363 110.136 0.684088 110.441 0.707539V6.58191C110.253 6.55846 109.995 6.54674 109.667 6.54674C108.917 6.54674 108.366 6.72261 108.014 7.07437C107.662 7.40268 107.463 7.94204 107.416 8.69246H110.511V14.4261Z" fill="#EFF1F7"/>
<path d="M122.156 28.6724C120.186 28.6724 118.416 28.262 116.845 27.4412C115.297 26.6204 114.077 25.4479 113.186 23.9236C112.295 22.3993 111.85 20.6054 111.85 18.5417C111.85 16.5015 112.295 14.7193 113.186 13.195C114.101 11.6707 115.332 10.4982 116.88 9.67739C118.451 8.85662 120.221 8.44623 122.191 8.44623C124.161 8.44623 125.92 8.85662 127.468 9.67739C129.039 10.4982 130.27 11.6707 131.161 13.195C132.076 14.7193 132.533 16.5015 132.533 18.5417C132.533 20.5819 132.076 22.3759 131.161 23.9236C130.27 25.4479 129.039 26.6204 127.468 27.4412C125.896 28.262 124.126 28.6724 122.156 28.6724ZM122.156 22.6925C123.118 22.6925 123.915 22.3407 124.548 21.6372C125.205 20.9102 125.533 19.8784 125.533 18.5417C125.533 17.205 125.205 16.1849 124.548 15.4814C123.915 14.7779 123.129 14.4261 122.191 14.4261C121.253 14.4261 120.468 14.7779 119.835 15.4814C119.201 16.1849 118.885 17.205 118.885 18.5417C118.885 19.9018 119.19 20.9337 119.799 21.6372C120.409 22.3407 121.195 22.6925 122.156 22.6925Z" fill="#EFF1F7"/>
<path d="M142.232 12.1749C143.006 11.0492 143.944 10.1581 145.047 9.50151C146.149 8.84489 147.333 8.51658 148.599 8.51658V15.8683H146.665C145.164 15.8683 144.05 16.1615 143.323 16.7477C142.596 17.334 142.232 18.3541 142.232 19.808V28.4261H135.338V8.69246H142.232V12.1749Z" fill="#EFF1F7"/>
<path d="M176.855 8.51658C179.341 8.51658 181.287 9.267 182.694 10.7678C184.125 12.2687 184.84 14.3206 184.84 16.9236V28.4261H177.945V17.8382C177.945 16.7829 177.652 15.9621 177.066 15.3759C176.48 14.7896 175.682 14.4965 174.674 14.4965C173.666 14.4965 172.868 14.7896 172.282 15.3759C171.696 15.9621 171.403 16.7829 171.403 17.8382V28.4261H164.508V17.8382C164.508 16.7829 164.215 15.9621 163.629 15.3759C163.066 14.7896 162.28 14.4965 161.272 14.4965C160.24 14.4965 159.431 14.7896 158.845 15.3759C158.259 15.9621 157.965 16.7829 157.965 17.8382V28.4261H151.071V8.69246H157.965V11.2955C158.575 10.4513 159.361 9.78292 160.322 9.29045C161.307 8.77454 162.433 8.51658 163.699 8.51658C165.153 8.51658 166.443 8.83317 167.568 9.46633C168.718 10.0995 169.62 10.9906 170.277 12.1397C170.981 11.061 171.907 10.1933 173.056 9.53669C174.205 8.85662 175.471 8.51658 176.855 8.51658Z" fill="#EFF1F7"/>
</svg>
