<svg width="140" height="23" viewBox="0 0 140 23" fill="none" xmlns="http://www.w3.org/2000/svg">
<path d="M8.58167 22.5876C7.14433 22.5876 5.85633 22.3542 4.71767 21.8876C3.579 21.4209 2.66433 20.7302 1.97367 19.8156C1.30167 18.9009 0.947001 17.7996 0.909668 16.5116H6.00567C6.08033 17.2396 6.33233 17.7996 6.76167 18.1916C7.191 18.5649 7.751 18.7516 8.44167 18.7516C9.151 18.7516 9.711 18.5929 10.1217 18.2756C10.5323 17.9396 10.7377 17.4822 10.7377 16.9036C10.7377 16.4182 10.5697 16.0169 10.2337 15.6996C9.91633 15.3822 9.515 15.1209 9.02967 14.9156C8.563 14.7102 7.891 14.4769 7.01367 14.2156C5.74433 13.8236 4.70833 13.4316 3.90567 13.0396C3.103 12.6476 2.41233 12.0689 1.83367 11.3036C1.255 10.5382 0.965668 9.53958 0.965668 8.30758C0.965668 6.47824 1.62833 5.05024 2.95367 4.02358C4.279 2.97824 6.00567 2.45558 8.13367 2.45558C10.299 2.45558 12.0443 2.97824 13.3697 4.02358C14.695 5.05024 15.4043 6.48758 15.4977 8.33558H10.3177C10.2803 7.70091 10.047 7.20624 9.61767 6.85158C9.18833 6.47824 8.63767 6.29157 7.96567 6.29157C7.387 6.29157 6.92034 6.45024 6.56567 6.76758C6.211 7.06624 6.03367 7.50491 6.03367 8.08358C6.03367 8.71824 6.33233 9.21291 6.92967 9.56758C7.527 9.92224 8.46033 10.3049 9.72967 10.7156C10.999 11.1449 12.0257 11.5556 12.8097 11.9476C13.6123 12.3396 14.303 12.9089 14.8817 13.6556C15.4603 14.4022 15.7497 15.3636 15.7497 16.5396C15.7497 17.6596 15.4603 18.6769 14.8817 19.5916C14.3217 20.5062 13.5003 21.2342 12.4177 21.7756C11.335 22.3169 10.0563 22.5876 8.58167 22.5876Z" fill="white"/>
<path d="M27.6002 6.59958C29.3922 6.59958 30.8296 7.19691 31.9122 8.39158C32.9949 9.56758 33.5362 11.1916 33.5362 13.2636V22.3916H28.7762V13.9076C28.7762 12.8622 28.5056 12.0502 27.9642 11.4716C27.4229 10.8929 26.6949 10.6036 25.7802 10.6036C24.8656 10.6036 24.1376 10.8929 23.5962 11.4716C23.0549 12.0502 22.7842 12.8622 22.7842 13.9076V22.3916H17.9962V1.67158H22.7842V8.86758C23.2696 8.17691 23.9322 7.62624 24.7722 7.21557C25.6122 6.80491 26.5549 6.59958 27.6002 6.59958Z" fill="white"/>
<path d="M43.2754 22.6156C41.7448 22.6156 40.3634 22.2889 39.1314 21.6356C37.9181 20.9822 36.9568 20.0489 36.2474 18.8356C35.5568 17.6222 35.2114 16.2036 35.2114 14.5796C35.2114 12.9742 35.5661 11.5649 36.2754 10.3516C36.9848 9.11958 37.9554 8.17691 39.1874 7.52358C40.4194 6.87024 41.8008 6.54358 43.3314 6.54358C44.8621 6.54358 46.2434 6.87024 47.4754 7.52358C48.7074 8.17691 49.6781 9.11958 50.3874 10.3516C51.0967 11.5649 51.4514 12.9742 51.4514 14.5796C51.4514 16.1849 51.0874 17.6036 50.3594 18.8356C49.6501 20.0489 48.6701 20.9822 47.4194 21.6356C46.1874 22.2889 44.8061 22.6156 43.2754 22.6156ZM43.2754 18.4716C44.1901 18.4716 44.9648 18.1356 45.5994 17.4636C46.2528 16.7916 46.5794 15.8302 46.5794 14.5796C46.5794 13.3289 46.2621 12.3676 45.6274 11.6956C45.0114 11.0236 44.2461 10.6876 43.3314 10.6876C42.3981 10.6876 41.6234 11.0236 41.0074 11.6956C40.3914 12.3489 40.0834 13.3102 40.0834 14.5796C40.0834 15.8302 40.3821 16.7916 40.9794 17.4636C41.5954 18.1356 42.3608 18.4716 43.2754 18.4716Z" fill="white"/>
<path d="M58.0795 9.37158C58.6395 8.51291 59.3395 7.84091 60.1795 7.35558C61.0195 6.85158 61.9529 6.59958 62.9795 6.59958V11.6676H61.6635C60.4689 11.6676 59.5729 11.9289 58.9755 12.4516C58.3782 12.9556 58.0795 13.8516 58.0795 15.1396V22.3916H53.2915V6.76758H58.0795V9.37158Z" fill="white"/>
<path d="M73.2761 18.3316V22.3916H70.8401C69.1041 22.3916 67.7508 21.9716 66.7801 21.1316C65.8094 20.2729 65.3241 18.8822 65.3241 16.9596V10.7436H63.4201V6.76758H65.3241V2.95958H70.1121V6.76758H73.2481V10.7436H70.1121V17.0156C70.1121 17.4822 70.2241 17.8182 70.4481 18.0236C70.6721 18.2289 71.0454 18.3316 71.5681 18.3316H73.2761Z" fill="white"/>
<path d="M83.0831 10.7436H80.5071V22.3916H75.7191V10.7436H73.9831V6.76758H75.7191V6.31958C75.7191 4.39691 76.2698 2.94091 77.3711 1.95158C78.4724 0.943575 80.0871 0.439575 82.2151 0.439575C82.5698 0.439575 82.8311 0.448908 82.9991 0.467575V4.52758C82.0844 4.47158 81.4404 4.60224 81.0671 4.91958C80.6938 5.23691 80.5071 5.80624 80.5071 6.62758V6.76758H83.0831V10.7436Z" fill="white"/>
<path d="M91.7449 22.6156C90.2143 22.6156 88.833 22.2889 87.601 21.6356C86.3876 20.9822 85.4263 20.0489 84.7169 18.8356C84.0263 17.6222 83.681 16.2036 83.681 14.5796C83.681 12.9742 84.0356 11.5649 84.7449 10.3516C85.4543 9.11958 86.425 8.17691 87.657 7.52358C88.889 6.87024 90.2703 6.54358 91.8009 6.54358C93.3316 6.54358 94.713 6.87024 95.945 7.52358C97.177 8.17691 98.1476 9.11958 98.857 10.3516C99.5663 11.5649 99.921 12.9742 99.921 14.5796C99.921 16.1849 99.5569 17.6036 98.8289 18.8356C98.1196 20.0489 97.1396 20.9822 95.889 21.6356C94.657 22.2889 93.2756 22.6156 91.7449 22.6156ZM91.7449 18.4716C92.6596 18.4716 93.4343 18.1356 94.069 17.4636C94.7223 16.7916 95.049 15.8302 95.049 14.5796C95.049 13.3289 94.7316 12.3676 94.097 11.6956C93.481 11.0236 92.7156 10.6876 91.8009 10.6876C90.8676 10.6876 90.093 11.0236 89.477 11.6956C88.861 12.3489 88.553 13.3102 88.553 14.5796C88.553 15.8302 88.8516 16.7916 89.449 17.4636C90.065 18.1356 90.8303 18.4716 91.7449 18.4716Z" fill="white"/>
<path d="M106.549 9.37158C107.109 8.51291 107.809 7.84091 108.649 7.35558C109.489 6.85158 110.422 6.59958 111.449 6.59958V11.6676H110.133C108.938 11.6676 108.042 11.9289 107.445 12.4516C106.848 12.9556 106.549 13.8516 106.549 15.1396V22.3916H101.761V6.76758H106.549V9.37158Z" fill="white"/>
<path d="M132.974 6.59958C134.915 6.59958 136.455 7.18758 137.594 8.36357C138.751 9.53958 139.33 11.1729 139.33 13.2636V22.3916H134.57V13.9076C134.57 12.8996 134.299 12.1249 133.758 11.5836C133.235 11.0236 132.507 10.7436 131.574 10.7436C130.64 10.7436 129.903 11.0236 129.362 11.5836C128.839 12.1249 128.578 12.8996 128.578 13.9076V22.3916H123.818V13.9076C123.818 12.8996 123.547 12.1249 123.006 11.5836C122.483 11.0236 121.755 10.7436 120.822 10.7436C119.888 10.7436 119.151 11.0236 118.61 11.5836C118.087 12.1249 117.826 12.8996 117.826 13.9076V22.3916H113.038V6.76758H117.826V8.72758C118.311 8.07424 118.946 7.56091 119.73 7.18758C120.514 6.79558 121.4 6.59958 122.39 6.59958C123.566 6.59958 124.611 6.85158 125.526 7.35558C126.459 7.85958 127.187 8.57824 127.71 9.51158C128.251 8.65291 128.988 7.95291 129.922 7.41158C130.855 6.87024 131.872 6.59958 132.974 6.59958Z" fill="white"/>
</svg>
